# xmcd
#
# Track frame offsets:
#	150
#	14110
#	28063
#	31898
#	51533
#	63582
#	76809
#	90261
#	104935
#	120777
#	125546
#	139523
#	155321
#	169027
#
# Disc length: 2460 seconds
#
# Revision: 0
# Processed by: cddbd v1.5.2PL0 Copyright (c) Steve Scherf et al.
# Submitted via: iCDc 5.1 (http://www.waehlby.com/icdc)
#
DISCID=b4099a0e
DTITLE=Rudy Parris - Makin' My Way
DYEAR=2016
DGENRE=Country
TTITLE0=Party Out Back
TTITLE1=Cowboy Cry
TTITLE2=What Is A Cowboy? (Featuring Michael Madsen)
TTITLE3=Makin' My Way (Featuring Hank 3, Michael Madsen, Little Joe)
TTITLE4=Angels Can Fly
TTITLE5=Miles Away
TTITLE6=Mini Van
TTITLE7=Zombies Dressed In Abercrombie
TTITLE8=If I Could Only Have You
TTITLE9=Forgiveness (Featuring Michael Madsen)
TTITLE10=My Halo
TTITLE11=Sho Is Fine
TTITLE12=Swamp Cooler
TTITLE13=Down The Road
EXTD=
EXTT0=
EXTT1=
EXTT2=
EXTT3=
EXTT4=
EXTT5=
EXTT6=
EXTT7=
EXTT8=
EXTT9=
EXTT10=
EXTT11=
EXTT12=
EXTT13=
PLAYORDER=
